<?xml version="1.0" encoding="utf-8"?>
<!-- Generator: Adobe Illustrator 27.8.1, SVG Export Plug-In . SVG Version: 6.00 Build 0)  -->
<svg version="1.1" xmlns="http://www.w3.org/2000/svg" xmlns:xlink="http://www.w3.org/1999/xlink" x="0px" y="0px"
	 viewBox="0 0 400 1150" style="enable-background:new 0 0 400 1150;" xml:space="preserve">
<style type="text/css">
	.st0{display:none;}
	.st1{display:inline;fill:#FFFFFF;stroke:#000000;stroke-miterlimit:10;}
	.st2{display:inline;fill:#8115FF;}
	.st3{display:inline;fill:#9E22C6;}
	.st4{fill:#9E22C6;}
</style>
<g id="Layer_1" class="st0">
	
		<image style="display:inline;overflow:visible;" width="3300" height="2550" xlink:href="../../../Downloads/AA77CFB7-5AAD-40AC-AF1C-89BC03A1F2CE.png"  transform="matrix(0.464 0 0 0.464 -581.3867 -27.8511)">
	</image>
</g>
<g id="Layer_2" class="st0">
	<line class="st1" x1="-30.2" y1="39.8" x2="464.6" y2="39.8"/>
	<line class="st1" x1="386.6" y1="59.8" x2="386.6" y2="554.6"/>
</g>
<g id="Layer_8" class="st0">
	<line class="st2" x1="287.1" y1="415.4" x2="286.1" y2="431.4"/>
	<path class="st2" d="M96.1,97.7c3.7-21.4,12.7-37.1,33-48.7c11.9-7.9,27.7-10.1,45.6-9.2c23.3-1.8,39.8,1.3,49,9.5L244.2,61
		l15.3,16l9.9,26.2c1.9,8.7,2.6,17,0,23.9l-5.8,18c-1.8,5.6-0.1,12.4,2,19.4l-5.1,20.1c-4.3,8.2-9.3,15.5-16,20.8
		c-7.2,5.5-15.3,9.8-24.5,12.5l-15.1,1.4l-6-0.7l2,21.4c4.1,7.4,10.9,13.4,19.4,18.4c9.2,5,17.2,6,24.2,3.8l17.9,2.3l16.9,3.8
		l15.8,12l9,13l11.7,16.6l5.4,12l2,21.3l-2,7.3l0.1-17.9V319l0.6-14l-1.6-14.3l1.6-14.7l-0.3-4.8c0-2.7-3.7-4.1-8.9-6.1l-3.7-7
		l-7.1-7.7l-11.8-8.2l-8.1-4.9l0-4.3l2.7-3.1l6.1-2l11.4,3.5l8.6,3.9l4.1-1.4l3.1-5.8l0.9-6l-2.9-8.3c-3.7-21.3-4.3-39.8-2.4-56
		l0.3-4.2l4.8-1.4l4,2c1.7,11,3.1,19.6,4.9,40.7l0.7,8.5l4.1,0.9l2.7-2.1l3.1-33.7l4.4-19.4c1.5-4.1,4-5.1,6.7-4.4
		c1.9,3.1,3.7,8.4,3.9,10.6l-5.2,43.6l-1,7.8l2.7,1c6-2.5,8.3-11.5,9.1-19.4l8.2-22.5l3.6-5.1l3.8,0.3l1.9,1.7l-3.1,12.3l-3.7,13.8
		l-3.1,14.1l-0.4,6.8l2.1,1.4c5.6-0.6,7.2-3.7,8.2-7.1l11.7-16.5l4.5-3.6l1.9,0.6l1.7,3.7l-13.7,22l-2.4,8.9l-9.1,48.3l-1.4,10.2
		l0.4,3.7l0.5,12.3l1.7,28.9l1.4,16.7l3.7,17l5.8,37.8l-0.4,28.6l-2.4,14.5l-4.4,17.5l-8.9,9.5l-11.3,2.1l-15.7-1.8l-11.1-5
		l-12.3-6.5l1.4,8.2l6.1,20.8c3.9,12.1,8.6,30.2,6.1,33.4v39.1l-7.5,72.5c-2.4,33.2-17.6,72-24.5,118.5l-15.7,65.4l-6.9,29
		l-9.1,19.8L252,878.4c-10.8,41.7-19.5,84.1-27.2,131.7l-4.4,17l1,10.2c3.3,11,22,22.9,40.5,34.7l23.5,11.9l11.5,7l4.6,5.4l-4,8.7
		l-14.9,3l-36.8-2.9l-31.4,2.4l-40.3-2l-15.1-5.4c-5.4-1.2-4.3-6.4-5.7-11.1l2.6-26.5c5.8-22.1,7.3-42.9,1.1-61.4l-2.9-91.1
		l2.6-30.6l9.2-22.6l7.9-15.7l7.7-13.8l0.1-47.1l-2.3-9.2l-14.4,22.8l-6.7,20.1l-5.1,17.7l-1.7,14.6l-1,20.8l-5.1,25.2l-16.3,43.6
		l-9.5,25.2L108,987.3l-10.9,33.4l-9.2,33.7l2,32.7l-1.7,15c1.5,5,0.1,7.5-3.3,8.3l-18.8-0.3l-31.3,2.6c-6.5,1.6-14.1-0.2-22.1-3.4
		l-7.9-3l-1-9.2l21.6-27.4c8.9-10.6,14.2-20.2,13.1-27.8l3.1-23.1L41,975.4l1.7-50.5l0.9-26.6l3.4-32l7.1-28.4l6.7-17l2.8-13
		l1.8-19.1l1.8-22l1.5-25l1-33.4l1.5-19.4v-23l3.1-20.9l2.6-26.3l2.8-33.4l13.5-48.3l12.1-84.4l-1.4,25c1,11.8-3.9,27.7-11.7,43.9
		l-10.5,32.2c-5.1,8.1-6.1,19-9.4,35.7l-3.1,17.1l-2.4,14.1l7.9,15.8c3.2,7.3,4.1,17.1,3.1,28.9l0.3,16.7c-3.7,1.1-6.9,0.6-9.2-3.4
		l-3.1-5.4l-3.7-17.4l-3.1-1l-1.4,6.5l-0.3,3.7l0.3,8.9L59,685l3.7,9.9l4.1,6.8l1.4,4.1l1,6.5l-0.7,3.1l-2.7,2.4l-7.7-5.4l-5.6-3.8
		l-4.8-1.4l-3.1-1.7l-3.3-2.9l-5.9-2.2l-4.4-3.1l-2.9-2.7l-5.1-6.5c-3.6-10.5-7.1-21-3.9-30l1.4-21.1l4.8-31.3L24,582.5l-2.4-40.9
		l5.8-21.4l3.4-9.5l4.4-16.3l7.1-15l3.5-15.7l0.3-15l-0.7-19.4L43,408.9l-2-16.7l-0.3-22.8L40,342.9l3.4-19.7l3.7-12.6l9.5-12.9
		l9.5-9.5l32.9-19.7c12.8-15.6,19-17.7,24.8-29.6c7-9.5,9.9-19.6,8.4-30.3l0.4-18.8l-9.3-10.5l-8.7-17.7
		c-5.3,7.3-20.9-2.2-22.8-16.5l-3.1-8.9l2.7-12.8l4.9-8.5"/>
</g>
<g id="Layer_9" class="st0">
	
		<image style="display:inline;overflow:visible;" width="1668" height="4500" xlink:href="bodytype1_lines.png"  transform="matrix(0.24 0 0 0.24 -0.4791 35.1489)">
	</image>
</g>
<g id="Layer_3" class="st0">
	
		<image style="display:inline;overflow:visible;" width="3300" height="2550" xlink:href="body types.png"  transform="matrix(0.4652 0 0 0.4652 -90.0989 -35.5532)">
	</image>
</g>
<g id="Layer_4" class="st0">
	
		<image style="overflow:visible;" width="3300" height="2550" xlink:href="../../../Downloads/0DAF2F32-B973-4CB6-8A35-ED52F4414DF7.png"  transform="matrix(0.4654 0 0 0.4654 -89.5544 -35.5532)">
	</image>
	
		<image style="display:inline;overflow:visible;" width="549" height="240" xlink:href="D8B7CC85.png"  transform="matrix(0.2807 0 0 0.2807 138.4612 102.5319)">
	</image>
</g>
<g id="Layer_5" class="st0">
	
		<image style="overflow:visible;" width="3300" height="2550" xlink:href="../../../Downloads/9B1DF65F-F163-4804-BA8F-3FE5C5AAE6C3.png"  transform="matrix(0.4643 0 0 0.4643 -583.617 -29.6809)">
	</image>
	
		<image style="display:inline;overflow:visible;" width="3300" height="2550" xlink:href="../../../Downloads/33DA52F9-5EE9-4FED-B65B-E1D9298F9C8B.png"  transform="matrix(0.4645 0 0 0.4645 -1072.7584 12.2926)">
	</image>
</g>
<g id="Layer_13" class="st0">
	<path class="st3" d="M171.6,70.3c0,0-17.6-7-35.3,2"/>
	<path class="st3" d="M170.8,70c4.7-3.8,7.5-7.6,7.8-11.5c3.6,0.9,2.1,9.3,2.1,9.3c2.2-1.7,29.6-5.4,39.8,2.1
		c6.6,4.8,19.2,6.6,19.2,6.6c-2.4,2.6-12.8,1-12.8,1c17.4,7.1,29.3,22.5,29.3,22.5c16,29.3,27.7,25,27.7,25
		c-4.6,7.5-12.6,9.7-12.6,9.7c19.2,10.9-0.5,52.3-0.5,52.3s-1.2-7-1.7-4.6s-5.6,9.4-5.6,9.4c-9.2,9.7-5.3,30.1-5.3,30.1
		c-1.5-0.2-5.3-7.5-5.3-7.5c1.7,9-28.1,33.4-28.1,33.4l2.6-7.7c0,0-9.7,5.4-17.7,13.1c-8,7.7,1.5,8,1.5,8
		c-7.7,11.1-14.8,2.2-14.8,2.2c-2.6,0.2-10.2,9.9-11.4,10.7c-1.2,0.9-5.4-7.9-5.4-7.9c-4.8-1-4.6,12.4-4.6,12.4
		c-1.2,4.3-12.9-21.4-12.9-21.4c-5.6,12.6-22.8,16-22.8,16c17.2-7.7,0-31.3,0-31.3c-3.7,2.7-2.9,9.5-2.9,9.5
		c-1.2,2.6-7.5-5.4-7.5-5.4c-3.1,3.6-17.4,4.1-17.4,4.1c7.3-9.2,5.1-21.8,2.7-23.1c-2.4-1.4-6.9,9.8-6.9,9.8
		c0.2-6.1-10.8-24.8-10.8-24.8c-5.8,9.5-13.6,9.3-13.6,9.3s8.8-16.9,4.6-25.3c-17.2-34.2-6.4-58-6.4-58l-4.6,7.1
		c-1.7-12.2,12.1-30.1,12.1-30.1l-8.5,2c2-1.2,11.8-7.9,20.4-17c10.5-11.1,24.5-22.8,24.5-22.8c-4.1,0-8.9-8.9-5.8-5.8
		c3.1,3.1,17.2,0,17.2,0C148,66.7,159.5,66.6,170.8,70z"/>
</g>
<g id="Layer_12" class="st0">
	
		<image style="display:inline;overflow:visible;" width="1911" height="1337" xlink:href="D8B7CC8B.png"  transform="matrix(0.24 0 0 0.24 -72.5328 38.8579)">
	</image>
</g>
<g id="Layer_15">
	<path class="st4" d="M87.3,132.8c0,0-2,12.6-1.5,14.6l1.5-2.6l4.3,39.3l1.7-2.6c0,0,7.3,28.1,13.1,32l2.2-1.7
		c0,0,7.1,14.1,19.9,18.2l3.2,0.7c0,0,13.3,14.3,16,15.1l3.9,2l8.2,4.1h2.4l5.1,4.4h3.2l6.5,3.6l1-1.9l5.3,1.9h3.6l4.3-1l3.6,1
		l2.6-2.4l2.7,2.4l3.6-2.4c0,0,8.2,0,9.5-2.4c1.4-2.4,1.4-2.4,1.4-2.4l1.9,1.9l3.9-7.1c0,0,8.5-11.4,9.4-14.1l1.9-1.9l1.4,2.9
		c0,0,16.3-15.8,20.8-30.6c4.4-14.8,1.4-12.3,1.4-12.3l7.5-12.1c0,0,3.7-9.4,4.3-12.4c0.5-3.1,5.8-5.4,6.5-17l0.7,1
		c0,0,6.8-11.9-4.4-25.7h1.7l-1.7-7.1c0,0-14.3-15.7-15.7-17.7c-1.4-2-14.1-13.1-16-13.8h3.6c0,0-17.5-10.9-22.1-11.2
		c-4.6-0.3-13.4-6.3-17.4-6c0,0-17.2-2.6-25.7,1.8c0,0-5.1-2.8-15.1-3.3c-10-0.5-15.1-2.8-15.1-2.8l4.9,3.1c0,0-15.1,1.8-22.7,6.1
		c-7.7,4.3-12,4.6-12,4.6l7.1,2.6c0,0-15.6,5.6-22.5,15.8l2.3,1c0,0-10.7,13.3-11.5,18.4c-0.8,5.1-1.4,17.1-1.4,17.1
		s-2.9-1.2-2.9-0.2"/>
</g>
<g id="Layer_14" class="st0">
	
		<image style="display:inline;overflow:visible;" width="1209" height="1117" xlink:href="D8B7CC8D.png"  transform="matrix(0.24 0 0 0.24 8.6119 40.3021)">
	</image>
</g>
<g id="Layer_6" class="st0">
	
		<image style="overflow:visible;" width="425" height="225" xlink:href="52908E16.png"  transform="matrix(0.2862 0 0 0.2862 153.1915 107.6847)">
	</image>
	
		<image style="display:inline;overflow:visible;" width="408" height="210" xlink:href="52908E11.png"  transform="matrix(0.3061 0 0 0.3061 150.0672 99.7872)">
	</image>
</g>
<g id="Layer_10" class="st0">
	
		<image style="overflow:visible;" width="534" height="124" xlink:href="52908E12.png"  transform="matrix(0.3048 0 0 0.3048 128.0769 117.5319)">
	</image>
	
		<image style="display:inline;overflow:visible;" width="394" height="202" xlink:href="52908E10.png"  transform="matrix(0.305 0 0 0.305 156.4866 152.5319)">
	</image>
	
		<image style="overflow:visible;" width="388" height="181" xlink:href="52908E2E.png"  transform="matrix(0.3319 0 0 0.3319 152.1774 109.9787)">
	</image>
</g>
<g id="Layer_7" class="st0">
	
		<image style="display:inline;overflow:visible;" width="155" height="221" xlink:href="52908E31.png"  transform="matrix(0.281 0 0 0.281 206.2685 128.1064)">
	</image>
</g>
<g id="Layer_11" class="st0">
	
		<image style="display:inline;overflow:visible;" width="1668" height="4792" xlink:href="bodytype2_lines.png"  transform="matrix(0.24 0 0 0.24 283.9251 -8.7847)">
	</image>
</g>
</svg>
