<?xml version="1.0" encoding="utf-8"?>
<!-- Generator: Adobe Illustrator 27.8.1, SVG Export Plug-In . SVG Version: 6.00 Build 0)  -->
<svg version="1.1" xmlns="http://www.w3.org/2000/svg" xmlns:xlink="http://www.w3.org/1999/xlink" x="0px" y="0px"
	 viewBox="0 0 400 1150" style="enable-background:new 0 0 400 1150;" xml:space="preserve">
<style type="text/css">
	.st0{display:none;}
	.st1{display:inline;fill:#FFFFFF;stroke:#000000;stroke-miterlimit:10;}
	.st2{display:inline;fill:#8115FF;}
	.st3{fill:#CC3E3E;}
</style>
<g id="Layer_14">
	<path class="st3" d="M183.1,67.6l-1.5,0l-8.9-5.6l-8.7-3.1l-6.9,1.3l-13.5,3.1l-8.9,4.3l-8.9,2.3l-5.6,1l-7.4-1.5l-8.2-3.1
		l-4.3-1.4c0.9,5,3.8,9.5,12.4,12.4c-11.4,0-19.2,2.9-25,7.4l-3.2,4l-3.3,8.8l-9.2,16.7c-9.7,5.9-19,8.1-26.8-3.4
		c-0.6,5.6-2.2,11.3,12.4,14.2c-7.7,6.8-12.6,15.6-14.2,26.8l-0.6,6.1c3.3,11.6,1.9,18.6-2.9,22.5c-5.6,4-9.6,8.8-9.3,16
		c1.6,4.7,4,8.2,10,6.3c-1.9-3.8-2.4-7.5-1.3-11.1c10.1,6.4,5.2,26.9-6.8,20.7c2.6,4,4.6,8.4,14.2,6c-5.6,9.2-8.2,16.8-5.1,21.1
		c5.4,3.1,10.6,6.2,10.5,11.6c-1.3,4.1-4.5,9.3-9.2,15.3c-4,6.3-5.2,13.1,0.6,21.2c1.3,5.5,0.1,8.7-4.5,8.7c6.5,2.1,11.4,0.7,12.6-8
		l8.8,5.5c4.4,3.1,2.8,7.9-3.1,14c-6,11.9-3.8,19.5,4.7,23.6c-1.5-6.8-0.6-11.5,2.3-14.4c0,5.9,1.3,11.8,5.6,17.6l5.6-6
		c0.6,3.9,1.9,7.5,5.2,10c2.1,2.7,2.3,5.3,0.1,7.8c2.6-1.3,5.3-3.3,8.4-8.2l4.3-5.2c2.6,4.6,6.5,8.1,12.4,9.6
		c3.1,5.5,2.6,9.1-6.6,8.2c5.2,4.7,11.2,6.6,20-1.3c2.1-4.7,4-8.9,5.4-10.7c1.9,1.4,4.5,4.4,7.9,10.1c0.1,2.4-1,5.6-4.7,10.7
		c7.2,2.6,13.9,1.6,19.3-8.2c-3.7-7-4.2-16,4.2-17.6c-0.4,0.3,1,2.8,7.5,12c1.8,5.4-1.2,8.7-8,10.5c7,1.1,14.3,0.8,23-8.6
		c0.3,17,16.1,22.1,23.9,8.3c-10.5,6.6-11-13.4-3.6-18.4c2.9,12.6,8.3,22.1,24.3,18.7c-10.5-13.5-4-22,8.3-28.9
		c0.6,4,1.4,7.6,3.6,8.7c-0.3,3.5-2.8,5.1-7.7,4.6c7.8,4.5,15.6,7.9,22.2-10.7c4.8,8.1,10,15.6,18,17.1c-6.1-11.3-4.6-20,5.4-26
		l14.2-7c-0.1,3.5-0.8,6.7-2.9,9.4c4.1,1.8,8.2,3.2,12.5-5.9c-2.3-3.8-4.6-7.7-2.6-12.5c5.7-1.4,8.6-4.4,7.7-9.4
		c-2.8-5-3.4-10.8-2.2-17.1c4.4,2.1,8.8,3,13-1.7c-5.6-0.6-8.7-3.2-7.3-10c2.5-3.6-1.1-6-5.5-8.2c-3.2-2.4-2.8-6.7-1.3-11.5
		c1.5,5.2,4.9,7.8,14.6,1.8c-6.9,1.7-10.8,0.6-7.1-7.7c2.1-3.7-1.4-4.6-6.8-4.7c-7.5-2.3-0.8-12.7,3.8-21.8
		c3.5-7.4,0.8-13.9-6.8-19.7c6.2-0.2,10.7-2.6,11.9-9.2c-14.6,10.5-16.6,0.1-6.5-17.1c-11.2,1.5-13.1-4.8-7.5-17.5
		c6.7-9,11.5-17.6,2.4-23.1c-4.4-5.3-10.4-9.6-17.5-13.1c4.3,0,8-0.7,10.7-2.9c-20.6,2.6-22.3-22.3-26.7-27.7
		c-5-7.3-15.1-9.2-25.4-10.7c6.1-3.3,8.1-7.8,7-13.1c-6,10.1-15.5,12.5-29.5,5.1C195.3,58.6,186.2,59.3,183.1,67.6z"/>
</g>
</svg>
