<?xml version="1.0" encoding="UTF-8"?><svg id="Layer_8" xmlns="http://www.w3.org/2000/svg" viewBox="0 0 400 1080"><defs><style>.cls-1{fill:#8115ff;stroke-width:0px;}</style></defs><line class="cls-1" x1="287.09" y1="380.36" x2="286.06" y2="396.36"/><path class="cls-1" d="m96.15,62.74c3.74-21.39,12.67-37.05,33.02-48.68,11.9-7.9,27.68-10.12,45.62-9.19,23.35-1.8,39.77,1.32,49.02,9.53l20.43,11.57,15.32,16,9.87,26.21c1.89,8.71,2.59,16.96,0,23.91l-5.79,17.96c-1.78,5.6-.08,12.42,2.04,19.4l-5.11,20.09c-4.31,8.15-9.26,15.54-16,20.77-7.2,5.5-15.3,9.77-24.51,12.51l-15.09,1.45-6.02-.68,2.04,21.45c4.11,7.42,10.92,13.36,19.4,18.38,9.19,4.98,17.17,5.97,24.19,3.77l17.87,2.3,16.85,3.83,15.83,12,8.96,13,11.74,16.6,5.38,12,1.96,21.3-2.04,7.32.09-17.89v-13.62l.62-13.96-1.55-14.28,1.6-14.66-.34-4.77c0-2.72-3.74-4.09-8.91-6.11l-3.68-7-7.15-7.66-11.79-8.17-8.14-4.92-.03-4.28,2.72-3.06,6.13-2,11.45,3.53,8.64,3.91,4.09-1.36,3.06-5.79.89-5.96-2.94-8.34c-3.7-21.3-4.3-39.79-2.38-56.01l.34-4.24,4.77-1.36,3.96,2.04c1.68,11.04,3.06,19.57,4.89,40.68l.66,8.53,4.11.85,2.72-2.06,3.06-33.7,4.4-19.4c1.46-4.11,4.04-5.14,6.7-4.43,1.89,3.1,3.69,8.38,3.91,10.55l-5.17,43.57-1,7.83,2.72,1.02c5.99-2.5,8.32-11.5,9.13-19.43l8.17-22.47,3.57-5.11,3.78.34,1.9,1.73-3.06,12.26-3.74,13.85-3.06,14.07-.36,6.81,2.06,1.36c5.61-.64,7.18-3.72,8.17-7.15l11.72-16.49,4.47-3.62,1.85.55,1.74,3.72-13.66,21.96-2.38,8.85-9.15,48.34-1.4,10.21.38,3.74.51,12.26,1.7,28.94,1.36,16.68,3.74,17.02,5.79,37.79-.4,28.62-2.38,14.47-4.4,17.51-8.85,9.53-11.26,2.06-15.74-1.81-11.09-5.02-12.26-6.47,1.36,8.17,6.13,20.77c3.9,12.06,8.62,30.19,6.13,33.36v39.15l-7.49,72.51c-2.41,33.23-17.59,71.96-24.51,118.47l-15.66,65.36-6.87,28.96-9.06,19.77-14.43,18.7c-10.79,41.68-19.5,84.11-27.23,131.74l-4.43,17.02,1.02,10.21c3.34,11.02,21.96,22.88,40.53,34.74l23.49,11.87,11.47,6.98,4.55,5.36-3.97,8.71-14.88,3.03-36.75-2.88-31.4,2.37-40.32-2.03-15.1-5.38c-5.36-1.23-4.31-6.37-5.68-11.06l2.64-26.47c5.85-22.09,7.27-42.86,1.11-61.36l-2.89-91.06,2.55-30.64,9.19-22.64,7.91-15.66,7.66-13.79.09-47.15-2.34-9.19-14.36,22.83-6.74,20.06-5.11,17.7-1.7,14.64-1.02,20.77-5.11,25.19-16.34,43.57-9.53,25.19-11.3,26.23-10.89,33.36-9.17,33.68,2.04,32.68-1.7,14.98c1.55,4.98.13,7.51-3.32,8.34l-18.81-.34-31.32,2.55c-6.48,1.61-14.08-.22-22.13-3.4l-7.85-3.02-1-9.23,21.6-27.38c8.86-10.64,14.17-20.19,13.13-27.77l3.06-23.15-.68-43.23,1.68-50.53.85-26.55,3.4-32,7.15-28.43,6.68-17.02,2.83-13.04,1.79-19.15,1.79-21.96,1.53-25.02,1.02-33.45,1.53-19.4v-22.98l3.06-20.94,2.55-26.3,2.81-33.45,13.53-48.26,12.12-84.45-1.4,24.96c1,11.77-3.92,27.66-11.74,43.91l-10.47,32.17c-5.12,8.15-6.08,18.98-9.45,35.74l-3.06,17.11-2.43,14.11,7.92,15.85c3.22,7.26,4.05,17.11,3.06,28.94l.34,16.68c-3.66,1.13-6.88.59-9.19-3.4l-3.06-5.45-3.74-17.36-3.06-1.02-1.36,6.47-.34,3.74.34,8.85,1.36,11.23,3.74,9.87,4.09,6.81,1.36,4.09,1.02,6.47-.68,3.06-2.72,2.38-7.68-5.43-5.6-3.77-4.77-1.36-3.06-1.7-3.26-2.87-5.94-2.23-4.43-3.06-2.91-2.7-5.11-6.47c-3.63-10.52-7.14-20.96-3.94-29.96l1.38-21.11,4.79-31.34-1.38-23.13-2.38-40.85,5.79-21.45,3.4-9.53,4.43-16.34,7.15-14.98,3.49-15.68.26-14.96-.68-19.4-2.38-20.43-2.04-16.68-.34-22.81-.68-26.55,3.4-19.74,3.74-12.6,9.53-12.94,9.53-9.53,32.89-19.74c12.77-15.57,18.99-17.7,24.77-29.62,6.99-9.48,9.86-19.56,8.38-30.3l.43-18.76-9.26-10.54-8.7-17.68c-5.28,7.32-20.86-2.19-22.81-16.51l-3.09-8.85,2.74-12.77,4.94-8.51"/></svg>