<?xml version="1.0" encoding="utf-8"?>
<!-- Generator: Adobe Illustrator 27.8.1, SVG Export Plug-In . SVG Version: 6.00 Build 0)  -->
<svg version="1.1" xmlns="http://www.w3.org/2000/svg" xmlns:xlink="http://www.w3.org/1999/xlink" x="0px" y="0px"
	 viewBox="0 0 400 1150" style="enable-background:new 0 0 400 1150;" xml:space="preserve">
<style type="text/css">
	.st0{display:none;}
	.st1{display:inline;fill:#FFFFFF;stroke:#000000;stroke-miterlimit:10;}
	.st2{display:inline;fill:#8115FF;}
	.st3{fill:#7620F4;}
	.st4{display:inline;fill:#CC3E3E;}
</style>
<g id="Layer_1" class="st0">
	
		<image style="display:inline;overflow:visible;" width="3300" height="2550" xlink:href="../../../Downloads/AA77CFB7-5AAD-40AC-AF1C-89BC03A1F2CE.png"  transform="matrix(0.464 0 0 0.464 -1001.3867 -27.8511)">
	</image>
</g>
<g id="Layer_2" class="st0">
	<line class="st1" x1="-450.2" y1="39.8" x2="44.6" y2="39.8"/>
</g>
<g id="Layer_8" class="st0">
</g>
<g id="Layer_15">
	<path class="st3" d="M93.1,135.2c3.7-21.4,12.7-37,33-48.7c11.9-7.9,27.7-10.1,45.6-9.2c23.4-1.8,39.8,1.3,49,9.5l20.4,11.6
		l15.3,16l9.9,26.2c1.9,8.7,2.6,17,0,23.9l-5.8,18c-1.8,5.6-0.1,12.4,2,19.4l-5.1,20.1c-4.3,8.1-9.3,15.5-16,20.8
		c-7.2,5.5-15.3,9.8-24.5,12.5l-17.4-0.6l-3.7,1.4l2,21.4l19.4,18.4l26.9,10.2l8.5,1.7l13.6,6.5l14.6,10.6l9.5,13.3l7.1,17.4
		l11.2,18.7l7.1,9.5l2,4.3l0.1-17.9v-13.6l0.6-14l-1.5-14.3l-1.2-15.7l-1.4-3.6c-6.4-0.7-10.1-3.2-13.1-6.3l-6.5-6.5l-6.3-7.5
		l-9.9-8.9l-8.1-4.9l0-4.3l2.7-3.1l6.1-2l11.2,5.4l8.9,2l4.1-1.4l3.1-5.8l-0.9-8l-1.2-6.3c-3.7-21.3-4.3-39.8-2.4-56l0.3-4.2
		l4.8-1.4l4.1,3.1c-0.2,12.2,0.7,25.1,4.8,39.7l0.7,8.5l4.1,1.9l2.7-3.1l3.1-33.7l3.4-19.4c1.5-4.1,3.6-5.5,6.3-4.7
		c1.9,3.1,3.4,6,3.6,8.1l-4.4,46.3v7.8l2.7,1c6-2.5,6.3-10.9,7.1-18.8l8.9-23.4l3.4-5.8l3.4-0.3l3.7,3.4l-3.1,12.3l-3.7,13.9
		l-3.1,14.1l-1.4,6.8l3.1,1.4l8.2-7.1l11.7-16.5l4.5-3.6l1.9,0.6v4.5l-11.9,21.2l-2.4,8.8L358,304l0.3,11.2l0.7,5.1l-1.2,7l4.3,28.9
		l3.2,23.3l3.6,13.6l3.5,22.3l7,44.8l-2.4,14.5l-4.4,17.5l-8.9,9.5l-11.3,2.1l-10.2-2.1l-17-18.4l-16.7-15.3l-6.8-9.2l-12.6-16.3
		l-6.8-9.2l-12.6-14l-6.5-2.7l1.7,44.9l4.4,42.9l6.5,24.5c3.9,12.1,7.3,23.4,4.8,26.5l5.1,38.4l2.2,63.3
		c-2.4,33.2-8.9,78.5-15.8,125l-16.1,68.8l-4,29.3l-12.6,32.7l-6.1,4.1c-10.8,41.7-19.8,86.8-27.6,134.4l1.3,13.4l2.8,10.6l49,34.1
		l23.5,11.9l13.6,6.1l3.1,4.8l-2.6,5.8l-11.2,5.4l-33.2-1.5l-40.6,3.1l-35.6-1.8l-17.4-6.1c-5.4-1.2-6.8-5.9-8.2-10.6l2.6-26.5
		c5.9-22.1,7.3-42.9,1.1-61.4l-2.9-91.1l2.6-30.6l9.2-22.6l7.9-15.7l7.7-13.8l0.1-47.2l3.1-53.5l3.4-25.9l2.6-28.3l0.8-25l0.9-5.3
		l-4.1,22.8L167,753.8l-8.5,32l-4.1,16.3l-2.7,14l-7.9,19.7l-6.1,13.8l-4.3,9.7l-9.5,17.4l-1.8,30.6l-2,22.3L104.3,975l-9.2,23.2
		l-7.8,27.9l-3.6,35.7l1.2,29.9l2,32.7l-1.7,15c1.6,5,0.1,7.5-3.3,8.3l-18.8-0.3l-31.3,2.6l-22.1-3.4l-7.9-3l-1-9.2l21.6-27.4
		c8.9-10.6,14.2-20.2,13.1-27.8l3.1-23.2l-0.7-43.2l1.7-50.5l0.8-26.5l3.4-32l7.2-28.4l8.7-17l3.8-9.2l8.2-19.7l2.4-22.8l-0.7-26.2
		L75,748l1.4-22.5l2.4-25.5l2.7-16.3l1-27.7l1.9-28.4l10.4-55.2l10.2-18.4l16-38.8c3.1-5.5,5.5-10.9,2-16l-3.4-26.5l-3.8-25.3
		l-4.1-16.2l-1.4-5.5l-3.1,24.9l-4.4,27.2l-4.4,37.1c1,11.8-4.1,26.6-11.9,42.9L73,591.4c-5.1,8.2-9.4,20.4-12.8,37.1l2,16.5
		l2.9,15.8l6.5,12.9c3.2,7.3,4.1,17.1,3.1,28.9l0.3,16.7c-3.7,1.1-6.9,0.6-9.2-3.4l-3.1-5.5l-3.7-17.4l-3.1-1l-1.4,6.5l-0.3,3.7
		l0.3,8.8l1.4,11.2l3.7,9.9l4.1,6.8l1.4,4.1l1,6.5l-0.7,3.1l-2.7,2.4l-7.7-5.4l-5.6-3.8l-4.8-1.4l-3.1-1.7l-3.3-2.9l-5.9-2.2
		l-4.4-3.1l-2.9-2.7l-5.1-6.5c-3.6-10.5-6.1-20-2.9-29l4.3-20.7l0.9-32.7l3.3-18.7l0.7-30.3l4.4-36.4l2.4-8.9l7.8-15.3l7.2-18
		l5.1-11.2l1.4-20.1l-2.3-18.7l2-21.5l-3.8-19.9l-2.7-22.3l-1-24.2l2.4-18.7l4.4-9.9l6.5-14.6l8.2-7.8l32.7-19.7
		c14.8-9.6,26.5-20.1,32.3-32l0.4-28.3l-2-17l-11.4-13l-8.7-17.7c-5.3,7.3-20.9-2.2-22.8-16.5l-4.1-8.8l3.7-12.8l4.9-8.5"/>
</g>
<g id="Layer_9" class="st0">
</g>
<g id="Layer_3" class="st0">
	
		<image style="overflow:visible;" width="3300" height="2550" xlink:href="body types.png"  transform="matrix(0.4652 0 0 0.4652 -510.0989 -35.5532)">
	</image>
	
		<image style="display:inline;overflow:visible;" width="3300" height="2550" xlink:href="../../../Downloads/7D96580B-A460-406D-B1C9-7EE112920648.png"  transform="matrix(0.4651 0 0 0.4651 -509.5745 -33.9519)">
	</image>
</g>
<g id="Layer_4" class="st0">
	
		<image style="overflow:visible;" width="3300" height="2550" xlink:href="../../../Downloads/0DAF2F32-B973-4CB6-8A35-ED52F4414DF7.png"  transform="matrix(0.4654 0 0 0.4654 -509.5544 -35.5532)">
	</image>
</g>
<g id="Layer_5" class="st0">
	
		<image style="overflow:visible;" width="3300" height="2550" xlink:href="../../../Downloads/9B1DF65F-F163-4804-BA8F-3FE5C5AAE6C3.png"  transform="matrix(0.4643 0 0 0.4643 -1003.617 -29.6809)">
	</image>
	
		<image style="display:inline;overflow:visible;" width="3300" height="2550" xlink:href="../../../Downloads/33DA52F9-5EE9-4FED-B65B-E1D9298F9C8B.png"  transform="matrix(0.4645 0 0 0.4645 -91.8648 2)">
	</image>
</g>
<g id="Layer_13" class="st0">
	
		<image style="display:inline;overflow:visible;" width="3300" height="2550" xlink:href="../../../Downloads/33DA52F9-5EE9-4FED-B65B-E1D9298F9C8B.png"  transform="matrix(0.4645 0 0 0.4645 -581.9286 5.6596)">
	</image>
</g>
<g id="Layer_14" class="st0">
	<path class="st4" d="M183.1,67.6l-1.5,0l-8.9-5.6l-8.7-3.1l-6.9,1.3l-13.5,3.1l-8.9,4.3l-8.9,2.3l-5.6,1l-7.4-1.5l-8.2-3.1
		l-4.3-1.4c0.9,5,3.8,9.5,12.4,12.4c-11.4,0-19.2,2.9-25,7.4l-3.2,4l-3.3,8.8l-9.2,16.7c-9.7,5.9-19,8.1-26.8-3.4
		c-0.6,5.6-2.2,11.3,12.4,14.2c-7.7,6.8-12.6,15.6-14.2,26.8l-0.6,6.1c3.3,11.6,1.9,18.6-2.9,22.5c-5.6,4-9.6,8.8-9.3,16
		c1.6,4.7,4,8.2,10,6.3c-1.9-3.8-2.4-7.5-1.3-11.1c10.1,6.4,5.2,26.9-6.8,20.7c2.6,4,4.6,8.4,14.2,6c-5.6,9.2-8.2,16.8-5.1,21.1
		c5.4,3.1,10.6,6.2,10.5,11.6c-1.3,4.1-4.5,9.3-9.2,15.3c-4,6.3-5.2,13.1,0.6,21.2c1.3,5.5,0.1,8.7-4.5,8.7c6.5,2.1,11.4,0.7,12.6-8
		l8.8,5.5c4.4,3.1,2.8,7.9-3.1,14c-6,11.9-3.8,19.5,4.7,23.6c-1.5-6.8-0.6-11.5,2.3-14.4c0,5.9,1.3,11.8,5.6,17.6l5.6-6
		c0.6,3.9,1.9,7.5,5.2,10c2.1,2.7,2.3,5.3,0.1,7.8c2.6-1.3,5.3-3.3,8.4-8.2l4.3-5.2c2.6,4.6,6.5,8.1,12.4,9.6
		c3.1,5.5,2.6,9.1-6.6,8.2c5.2,4.7,11.2,6.6,20-1.3c2.1-4.7,4-8.9,5.4-10.7c1.9,1.4,4.5,4.4,7.9,10.1c0.1,2.4-1,5.6-4.7,10.7
		c7.2,2.6,13.9,1.6,19.3-8.2c-3.7-7-4.2-16,4.2-17.6c-0.4,0.3,1,2.8,7.5,12c1.8,5.4-1.2,8.7-8,10.5c7,1.1,14.3,0.8,23-8.6
		c0.3,17,16.1,22.1,23.9,8.3c-10.5,6.6-11-13.4-3.6-18.4c2.9,12.6,8.3,22.1,24.3,18.7c-10.5-13.5-4-22,8.3-28.9
		c0.6,4,1.4,7.6,3.6,8.7c-0.3,3.5-2.8,5.1-7.7,4.6c7.8,4.5,15.6,7.9,22.2-10.7c4.8,8.1,10,15.6,18,17.1c-6.1-11.3-4.6-20,5.4-26
		l14.2-7c-0.1,3.5-0.8,6.7-2.9,9.4c4.1,1.8,8.2,3.2,12.5-5.9c-2.3-3.8-4.6-7.7-2.6-12.5c5.7-1.4,8.6-4.4,7.7-9.4
		c-2.8-5-3.4-10.8-2.2-17.1c4.4,2.1,8.8,3,13-1.7c-5.6-0.6-8.7-3.2-7.3-10c2.5-3.6-1.1-6-5.5-8.2c-3.2-2.4-2.8-6.7-1.3-11.5
		c1.5,5.2,4.9,7.8,14.6,1.8c-6.9,1.7-10.8,0.6-7.1-7.7c2.1-3.7-1.4-4.6-6.8-4.7c-7.5-2.3-0.8-12.7,3.8-21.8
		c3.5-7.4,0.8-13.9-6.8-19.7c6.2-0.2,10.7-2.6,11.9-9.2c-14.6,10.5-16.6,0.1-6.5-17.1c-11.2,1.5-13.1-4.8-7.5-17.5
		c6.7-9,11.5-17.6,2.4-23.1c-4.4-5.3-10.4-9.6-17.5-13.1c4.3,0,8-0.7,10.7-2.9c-20.6,2.6-22.3-22.3-26.7-27.7
		c-5-7.3-15.1-9.2-25.4-10.7c6.1-3.3,8.1-7.8,7-13.1c-6,10.1-15.5,12.5-29.5,5.1C195.3,58.6,186.2,59.3,183.1,67.6z"/>
</g>
<g id="Layer_12" class="st0">
	
		<image style="display:inline;overflow:visible;" width="3300" height="2550" xlink:href="../../../Downloads/90A37C4C-BD43-4A32-AA11-2B7834023FEB.png"  transform="matrix(0.24 0 0 0.24 -362.0638 38)">
	</image>
</g>
<g id="Layer_6" class="st0">
</g>
<g id="Layer_10" class="st0">
</g>
<g id="Layer_11">
</g>
<g id="Layer_7" class="st0">
</g>
</svg>
