<?xml version="1.0" encoding="utf-8"?>
<!-- Generator: Adobe Illustrator 27.8.1, SVG Export Plug-In . SVG Version: 6.00 Build 0)  -->
<svg version="1.1" xmlns="http://www.w3.org/2000/svg" xmlns:xlink="http://www.w3.org/1999/xlink" x="0px" y="0px"
	 viewBox="0 0 400 1150" style="enable-background:new 0 0 400 1150;" xml:space="preserve">
<style type="text/css">
	.st0{display:none;}
	.st1{display:inline;fill:#FFFFFF;stroke:#000000;stroke-miterlimit:10;}
	.st2{display:inline;fill:#8115FF;}
	.st3{display:inline;fill:#7620F4;}
	.st4{fill:#7620F4;}
	.st5{display:inline;fill:#CC3E3E;}
</style>
<g id="Layer_1" class="st0">
	
		<image style="display:inline;overflow:visible;" width="3300" height="2550" xlink:href="../../../Downloads/AA77CFB7-5AAD-40AC-AF1C-89BC03A1F2CE.png"  transform="matrix(0.464 0 0 0.464 -1001.3867 -27.8511)">
	</image>
</g>
<g id="Layer_2" class="st0">
	<line class="st1" x1="-450.2" y1="39.8" x2="44.6" y2="39.8"/>
</g>
<g id="Layer_8" class="st0">
</g>
<g id="Layer_15" class="st0">
	<path class="st3" d="M97.1,134.2c3.7-21.4,12.7-37,33-48.7c11.9-7.9,27.7-10.1,45.6-9.2c23.4-1.8,39.8,1.3,49,9.5l20.4,11.6
		l15.3,16l9.9,26.2c1.9,8.7,2.6,17,0,23.9l-5.8,18c-1.8,5.6-0.1,12.4,2,19.4l-5.1,20.1c-4.3,8.1-9.3,15.5-16,20.8
		c-7.2,5.5-15.3,9.8-24.5,12.5l-17.4-0.6l-3.7,1.4l2,21.4l19.4,18.4l26.9,10.2l8.5,1.7l13.6,6.5l14.6,10.6l9.5,13.3l7.1,17.4
		l11.2,18.7l7.1,9.5l2,4.3l0.1-17.9v-13.6l0.6-14l-1.5-14.3l-1.2-15.7l-1.4-3.6c-6.4-0.7-10.1-3.2-13.1-6.3l-6.5-6.5l-6.3-7.5
		l-9.9-8.9l-8.1-4.9l0-4.3l2.7-3.1l6.1-2l11.2,5.4l8.9,2l4.1-1.4l3.1-5.8l-0.9-8l-1.2-6.3c-3.7-21.3-4.3-39.8-2.4-56l0.3-4.2
		l4.8-1.4l4.1,3.1c-0.2,12.2,0.7,25.1,4.8,39.7l0.7,8.5l4.1,1.9l2.7-3.1l3.1-33.7l3.4-19.4c1.5-4.1,3.6-5.5,6.3-4.7
		c1.9,3.1,3.4,6,3.6,8.1l-4.4,46.3v7.8l2.7,1c6-2.5,6.3-10.9,7.1-18.8l8.9-23.4l3.4-5.8l3.4-0.3l3.7,3.4l-3.1,12.3l-3.7,13.9
		l-3.1,14.1l-1.4,6.8l3.1,1.4l8.2-7.1l11.7-16.5l4.5-3.6l1.9,0.6v4.5l-11.9,21.2l-2.4,8.9L362,303l0.3,11.2l0.7,5.1l-1.2,7l4.3,28.9
		l3.2,23.3l3.6,13.6l3.5,22.3l7,44.8l-2.4,14.5l-4.4,17.5l-8.9,9.5l-11.3,2.1l-10.2-2.1l-17-18.4l-16.7-15.3l-6.8-9.2l-12.6-16.3
		l-6.8-9.2l-12.6-14l-6.5-2.7l1.7,44.9l4.4,42.9l6.5,24.5c3.9,12.1,7.3,23.4,4.8,26.5l5.1,38.4l2.2,63.3
		c-2.4,33.2-8.9,78.5-15.8,125l-16.1,68.8l-4,29.3l-12.6,32.7l-6.1,4.1c-10.8,41.7-19.8,86.8-27.6,134.4l1.3,13.4l2.8,10.6l49,34.1
		l23.5,11.9l13.6,6.1l3.1,4.8l-2.6,5.8l-11.2,5.4l-33.2-1.5l-40.6,3.1l-35.6-1.8l-17.4-6.1c-5.4-1.2-6.8-5.9-8.2-10.6l2.6-26.5
		c5.9-22.1,7.3-42.9,1.1-61.4l-2.9-91.1l2.6-30.6l9.2-22.6l7.9-15.7l7.7-13.8l0.1-47.2l3.1-53.5l3.4-25.9l2.6-28.3l0.8-25l0.9-5.3
		l-4.1,22.8L171,752.8l-8.5,32l-4.1,16.3l-2.7,14l-7.9,19.7l-6.1,13.8l-4.3,9.7l-9.5,17.4l-1.8,30.6l-2,22.3L108.3,974l-9.2,23.2
		l-7.8,27.9l-3.6,35.7l1.2,29.9l2,32.7l-1.7,15c1.6,5,0.1,7.5-3.3,8.3l-18.8-0.3l-31.3,2.6l-22.1-3.4l-7.9-3l-1-9.2l21.6-27.4
		c8.9-10.6,14.2-20.2,13.1-27.8l3.1-23.2l-0.7-43.2l1.7-50.5l0.8-26.5l3.4-32l7.2-28.4l8.7-17l3.8-9.2l8.2-19.7l2.4-22.8l-0.7-26.2
		L79,747l1.4-22.5l2.4-25.5l2.7-16.3l1-27.7l1.9-28.4l10.4-55.2l10.2-18.4l16-38.8c3.1-5.5,5.5-10.9,2-16l-3.4-26.5l-3.8-25.3
		l-4.1-16.2l-1.4-5.5l-3.1,24.9l-4.4,27.2l-4.4,37.1c1,11.8-4.1,26.6-11.9,42.9L77,590.4c-5.1,8.2-9.4,20.4-12.8,37.1l2,16.5
		l2.9,15.8l6.5,12.9c3.2,7.3,4.1,17.1,3.1,28.9l0.3,16.7c-3.7,1.1-6.9,0.6-9.2-3.4l-3.1-5.5l-3.7-17.4l-3.1-1l-1.4,6.5l-0.3,3.7
		l0.3,8.8l1.4,11.2l3.7,9.9l4.1,6.8l1.4,4.1l1,6.5l-0.7,3.1l-2.7,2.4l-7.7-5.4l-5.6-3.8l-4.8-1.4l-3.1-1.7l-3.3-2.9l-5.9-2.2
		l-4.4-3.1l-2.9-2.7l-5.1-6.5c-3.6-10.5-6.1-20-2.9-29l4.3-20.7l0.9-32.7l3.3-18.7l0.7-30.3l4.4-36.4l2.4-8.9l7.8-15.3l7.2-18
		l5.1-11.2l1.4-20.1l-2.3-18.7l2-21.5l-3.8-19.9l-2.7-22.3l-1-24.2l2.4-18.7l4.4-9.9l6.5-14.6l8.2-7.8l32.7-19.7
		c14.8-9.6,26.5-20.1,32.3-32l0.4-28.3l-2-17l-11.4-13l-8.7-17.7c-5.3,7.3-20.9-2.2-22.8-16.5l-4.1-8.8l3.7-12.8l4.9-8.5"/>
</g>
<g id="Layer_9" class="st0">
</g>
<g id="Layer_3" class="st0">
	
		<image style="overflow:visible;" width="3300" height="2550" xlink:href="body types.png"  transform="matrix(0.4652 0 0 0.4652 -510.0989 -35.5532)">
	</image>
	
		<image style="display:inline;overflow:visible;" width="3300" height="2550" xlink:href="../../../Downloads/7D96580B-A460-406D-B1C9-7EE112920648.png"  transform="matrix(0.4651 0 0 0.4651 -509.5745 -33.9519)">
	</image>
</g>
<g id="Layer_4" class="st0">
	
		<image style="overflow:visible;" width="3300" height="2550" xlink:href="../../../Downloads/0DAF2F32-B973-4CB6-8A35-ED52F4414DF7.png"  transform="matrix(0.4654 0 0 0.4654 -86.8523 1)">
	</image>
	
		<image style="display:inline;overflow:visible;" width="549" height="240" xlink:href="B64F8405.png"  transform="matrix(0.2807 0 0 0.2807 141.1633 139.0851)">
	</image>
</g>
<g id="Layer_16">
	<path class="st4" d="M96.4,151.7l-4.9,8.5L88.7,173l3.1,8.8c1.9,14.3,17.5,23.8,22.8,16.5l8.7,17.7l9.3,10.5l-0.4,18.8l-3.9,28.9
		c-5.8,11.9-12.2,21.3-27.1,31L66.1,325l-9.5,9.5L47,347.5l-3.7,12.6l-3.4,19.7l0.7,26.5l0.3,22.8l2,16.7l2.4,20.4l0.7,19.4l-0.3,15
		l-3.5,15.7l-7.2,15l-4.4,16.3l-3.4,9.5l-5.8,21.5l2.4,40.8l1.4,23.1l-4.8,31.3l-1.4,21.1c-3.2,9,0.3,19.4,3.9,30l5.1,6.5l2.9,2.7
		l4.4,3.1l5.9,2.2l3.3,2.9l3.1,1.7l4.8,1.4l5.6,3.8l7.7,5.4l2.7-2.4l0.7-3.1l-1-6.5l-1.4-4.1l-4.1-6.8l-3.7-9.9l-1.4-11.2l-0.3-8.8
		l0.3-3.7l1.4-6.5l3.1,1l3.7,17.4l3.1,5.5c2.3,4,5.5,4.5,9.2,3.4l-0.3-16.7c1-11.8,0.2-21.7-3.1-28.9l-6.5-12.9l-2.9-15.8l-2-16.5
		c3.4-16.8,7.7-29,12.8-37.1l13.6-33.7c7.8-16.3,12.9-31.1,11.9-42.9l4.4-37.1l4.4-27.2l-0.3-2.3l2.7,8.1l1.7,10.5l1.7,12.9
		l-1.4,23.8c-2.4,8.5-2,21.8-5.1,27.2l-6.1,22.8l-3.8,18.7L89.4,628l-3.9,27.4l-1,27.7l-2.7,16.3L79.4,725L78,747.5l-1.7,32.4
		L77,806l-2.4,22.8l-8.2,19.7l-3.8,9.2l-8.7,17l-7.2,28.4l-3.4,32l-0.8,26.5l-1.7,50.5l0.7,43.2l-3.1,23.2c1,7.6-4.3,17.1-13.1,27.8
		l-21.6,27.4l1,9.2l7.9,3c8,3.2,15.6,5,22.1,3.4l31.3-2.6l18.8,0.3c3.4-0.8,4.9-3.4,3.3-8.3l1.7-15l-2-32.7l9.2-33.7l10.9-33.4
		l6.8-27.2l10.2-25.2l11.4-39l8.2-30.3l-0.2-20.3l1.4-15l7.8-15.7l11.2-20.8l4.4-17l5.4-16.3l2-12.6l5.8-21.1l5.5-25.9l-3.4,25.9
		l-3.1,53.5l-0.1,47.2l-7.7,13.8l-7.9,15.7l-9.2,22.6l-2.6,30.6l2.9,91.1c6.2,18.5,4.7,39.3-1.1,61.4l-2.6,26.5
		c1.4,4.7,0.3,9.8,5.7,11.1l15.1,5.4l40.3,2l31.4-2.4l36.8,2.9l14.9-3l4-8.7l-4.5-5.4l-11.5-7l-23.5-11.9
		c-18.6-11.9-37.2-23.7-40.5-34.7l-1-10.2l4.4-17c7.7-47.6,16.4-90.1,27.2-131.7l14.4-18.7l9.1-19.8l4.1-27.2l14.3-67.4
		c6.9-46.5,13.9-85.6,16.3-118.8l-1.7-64.3l-4.8-35.4c2.5-3.2-2.9-19.3-6.8-31.3l-6.5-25.2l-3.4-26.2l-2-13.6l1-16l-0.7-18.4
		l-0.7,13.6l13,16.3l11.2,11.9l19.1,18.7l11.8,8.1l15.7,1.8l11.3-2.1l8.9-9.5l4.4-17.5l2.4-14.5l-9-44.8l-2.6-18.9l-2.5-17
		l-3.2-23.3l-1-27.4l0.3-8.9l-1.4-6.9l-0.9-9.4l9.8-47.1l4.4-8.6l10.9-20.5l-1-5.5l-1.9-0.6l-4.5,3.6l-11.7,16.5l-5.8,7.8l-4.1-0.5
		l0-8.3l3.1-14.1l6.4-19.9l0.4-6.3l-3.6-1.7l-2.5-0.3l-3.4,5.8l-9.9,22.4c-0.8,7.9-1.6,9.8-5.6,19.4l-4.2-1.6l2-7.8
		c0.3-12.3,2.1-28.5,3.8-46.3c-0.2-2.2-2.1-3.1-4-6.2c-2.7-0.7-5.9,1.3-7.3,3.7l-3.4,18.4l-3.1,33.7l-2.7,3.1l-4.1-1.9l-0.7-8.5
		c-4.1-14.6-5-27.4-4.8-39.7l-4.5-1.9l-4.4,2.2l-0.3,2.2c-1.9,16.2-1.3,34.7,2.4,56l1.2,6.3l2,7.9l-2.9,6.8l-5.4,0.4l-8.9-2
		l-11.2-4.4l-6.1,1l-2.7,3.1l0,4.3l8.1,4.9l9.9,8.9l6.3,7.5l6.5,6.5c3,3,6.7,5.6,13.1,6.3l1.4,3.6l1.2,15.7l1.5,14.3l-0.6,14v13.6
		l-0.1,17.9l2-7.3L318,371l-8.5-17.4l-9.5-16.3l-10.9-16.3l-15.3-12.3l-14.3-4.1l-10.9-2l-28.2-7.2c-8.5-5-15.3-11-19.4-18.4
		l-2-21.4l6,0.7l15.1-1.4c9.2-2.7,17.3-7,24.5-12.5c6.7-5.2,11.7-12.6,16-20.8l5.1-20.1c-2.1-7-3.8-13.8-2-19.4l5.8-18
		c2.6-7,1.9-15.2,0-23.9l-9.9-26.2l-15.3-16l-20.4-11.6c-9.2-8.2-25.7-11.3-49-9.5c-17.9-0.9-33.7,1.3-45.6,9.2
		c-20.3,11.6-29.3,27.3-33,48.7"/>
</g>
<g id="Layer_17" class="st0">
	<path class="st3" d="M95.8,133.8c3.7-21.4,12.7-37.1,33-48.7c11.9-7.9,27.7-10.1,45.6-9.2c23.4-1.8,39.8,1.3,49,9.5L243.8,97
		l15.3,16l9.9,26.2c1.9,8.7,2.6,17,0,23.9l-5.8,18c-1.8,5.6-0.1,12.4,2,19.4l-5.1,20.1c-4.3,8.1-9.3,15.5-16,20.8
		c-7.2,5.5-15.3,9.8-24.5,12.5l-15.1,1.4l-6-0.7l2,21.5c4.1,7.4,10.9,13.4,19.4,18.4c9.2,5,17.2,6,24.2,3.8l17.9,2.3l16.9,3.8
		l15.8,12l9,13l11.7,16.6l5.4,12l2,21.3l-2,7.3l0.1-17.9v-13.6l0.6-14l-1.5-14.3l1.6-14.7l-0.3-4.8c0-2.7-3.7-4.1-8.9-6.1l-3.7-7
		l-7.1-7.7l-11.8-8.2l-8.1-4.9l0-4.3l2.7-3.1l6.1-2l11.5,3.5l8.6,3.9l4.1-1.4l3.1-5.8l0.9-6l-2.9-8.3c-3.7-21.3-4.3-39.8-2.4-56
		l0.3-4.2l4.8-1.4l4,2c1.7,11,3.1,19.6,4.9,40.7l0.7,8.5l4.1,0.9l2.7-2.1l3.1-33.7l4.4-19.4c1.5-4.1,4-5.1,6.7-4.4
		c1.9,3.1,3.7,8.4,3.9,10.6l-5.2,43.6l-1,7.8l2.7,1c6-2.5,7.2-13.6,9.1-19.4l8.2-22.5l3.6-5.1l3.8,0.3l1.9,1.7l-3.1,12.3l-3.7,13.9
		l-3.1,14.1l-0.4,6.8l2.1,1.4c5.6-0.6,7.2-3.7,8.2-7.1l11.7-16.5l4.5-3.6l1.9,0.6l1.7,3.7l-13.7,22l-2.4,8.9l-9.1,48.3l-1.4,10.2
		l0.4,3.7l0.5,12.3l1.7,28.9l1.4,16.7l3.7,17l5.8,37.8l-0.4,28.6l-2.4,14.5l-4.4,17.5l-8.9,9.5l-11.3,2.1l-15.7-1.8l-11.1-5
		l-12.3-6.5l1.4,8.2l6.1,20.8c3.9,12.1,8.6,30.2,6.1,33.4v39.2l-7.5,72.5c-2.4,33.2-17.6,72-24.5,118.5L282,846.9l-6.9,29l-9.1,19.8
		l-14.4,18.7c-10.8,41.7-19.5,84.1-27.2,131.7l-4.4,17l1,10.2c3.3,11,22,22.9,40.5,34.7l23.5,11.9l11.5,7l4.5,5.4l-4,8.7l-14.9,3
		l-36.8-2.9l-31.4,2.4l-40.3-2l-15.1-5.4c-5.4-1.2-4.3-6.4-5.7-11.1l2.6-26.5c5.9-22.1,7.3-42.9,1.1-61.4l-2.9-91.1l2.6-30.6
		l9.2-22.6l7.9-15.7l7.7-13.8l0.1-47.2l-2.3-9.2l-14.4,22.8l-6.7,20.1l-5.1,17.7l-1.7,14.6l-1,20.8l-5.1,25.2l-16.3,43.6l-9.5,25.2
		l-11.3,26.2l-10.9,33.4l-9.2,33.7l2,32.7l-1.7,15c1.6,5,0.1,7.5-3.3,8.3l-18.8-0.3l-31.3,2.6c-6.5,1.6-14.1-0.2-22.1-3.4l-7.8-3
		l-1-9.2l21.6-27.4c8.9-10.6,14.2-20.2,13.1-27.8l3.1-23.2l-0.7-43.2l1.7-50.5l0.8-26.5l3.4-32l7.2-28.4l6.7-17l2.8-13l1.8-19.2
		l1.8-22l1.5-25l1-33.5l1.5-19.4v-23l3.1-20.9l2.6-26.3l2.8-33.5l13.5-48.3l12.1-84.5l-1.4,25c1,11.8-3.9,27.7-11.7,43.9l-10.5,32.2
		c-5.1,8.2-6.1,19-9.4,35.7l-3.1,17.1l-2.4,14.1l7.9,15.8c3.2,7.3,4.1,17.1,3.1,28.9l0.3,16.7c-3.7,1.1-6.9,0.6-9.2-3.4l-3.1-5.5
		l-3.7-17.4l-3.1-1l-1.4,6.5l-0.3,3.7l0.3,8.8l1.4,11.2l3.7,9.9l4.1,6.8l1.4,4.1l1,6.5l-0.7,3.1l-2.7,2.4l-7.7-5.4l-5.6-3.8
		l-4.8-1.4l-3.1-1.7l-3.3-2.9l-5.9-2.2l-4.4-3.1l-2.9-2.7l-5.1-6.5c-3.6-10.5-7.1-21-3.9-30l1.4-21.1l4.8-31.3l-1.4-23.1l-2.4-40.9
		l5.8-21.5l3.4-9.5l4.4-16.3l7.2-15l3.5-15.7l0.3-15L45,465.3l-2.4-20.4l-2-16.7l-0.3-22.8l-0.7-26.5l3.4-19.7l3.7-12.6l9.5-12.9
		l9.5-9.5l32.9-19.7c12.8-15.6,19-17.7,24.8-29.6c7-9.5,9.9-19.6,8.4-30.3l0.4-18.8l-9.3-10.5l-8.7-17.7
		c-5.3,7.3-20.9-2.2-22.8-16.5l-3.1-8.8l2.7-12.8l4.9-8.5"/>
</g>
<g id="Layer_5" class="st0">
	
		<image style="overflow:visible;" width="3300" height="2550" xlink:href="../../../Downloads/9B1DF65F-F163-4804-BA8F-3FE5C5AAE6C3.png"  transform="matrix(0.4643 0 0 0.4643 -1003.617 -29.6809)">
	</image>
	
		<image style="display:inline;overflow:visible;" width="3300" height="2550" xlink:href="../../../Downloads/33DA52F9-5EE9-4FED-B65B-E1D9298F9C8B.png"  transform="matrix(0.4645 0 0 0.4645 -87.4393 1.1277)">
	</image>
</g>
<g id="Layer_13" class="st0">
	
		<image style="display:inline;overflow:visible;" width="3300" height="2550" xlink:href="../../../Downloads/33DA52F9-5EE9-4FED-B65B-E1D9298F9C8B.png"  transform="matrix(0.4645 0 0 0.4645 -578.7159 3.5745)">
	</image>
</g>
<g id="Layer_14" class="st0">
	<path class="st5" d="M183.1,67.6l-1.5,0l-8.9-5.6l-8.7-3.1l-6.9,1.3l-13.5,3.1l-8.9,4.3l-8.9,2.3l-5.6,1l-7.4-1.5l-8.2-3.1
		l-4.3-1.4c0.9,5,3.8,9.5,12.4,12.4c-11.4,0-19.2,2.9-25,7.4l-3.2,4l-3.3,8.8l-9.2,16.7c-9.7,5.9-19,8.1-26.8-3.4
		c-0.6,5.6-2.2,11.3,12.4,14.2c-7.7,6.8-12.6,15.6-14.2,26.8l-0.6,6.1c3.3,11.6,1.9,18.6-2.9,22.5c-5.6,4-9.6,8.8-9.3,16
		c1.6,4.7,4,8.2,10,6.3c-1.9-3.8-2.4-7.5-1.3-11.1c10.1,6.4,5.2,26.9-6.8,20.7c2.6,4,4.6,8.4,14.2,6c-5.6,9.2-8.2,16.8-5.1,21.1
		c5.4,3.1,10.6,6.2,10.5,11.6c-1.3,4.1-4.5,9.3-9.2,15.3c-4,6.3-5.2,13.1,0.6,21.2c1.3,5.5,0.1,8.7-4.5,8.7c6.5,2.1,11.4,0.7,12.6-8
		l8.8,5.5c4.4,3.1,2.8,7.9-3.1,14c-6,11.9-3.8,19.5,4.7,23.6c-1.5-6.8-0.6-11.5,2.3-14.4c0,5.9,1.3,11.8,5.6,17.6l5.6-6
		c0.6,3.9,1.9,7.5,5.2,10c2.1,2.7,2.3,5.3,0.1,7.8c2.6-1.3,5.3-3.3,8.4-8.2l4.3-5.2c2.6,4.6,6.5,8.1,12.4,9.6
		c3.1,5.5,2.6,9.1-6.6,8.2c5.2,4.7,11.2,6.6,20-1.3c2.1-4.7,4-8.9,5.4-10.7c1.9,1.4,4.5,4.4,7.9,10.1c0.1,2.4-1,5.6-4.7,10.7
		c7.2,2.6,13.9,1.6,19.3-8.2c-3.7-7-4.2-16,4.2-17.6c-0.4,0.3,1,2.8,7.5,12c1.8,5.4-1.2,8.7-8,10.5c7,1.1,14.3,0.8,23-8.6
		c0.3,17,16.1,22.1,23.9,8.3c-10.5,6.6-11-13.4-3.6-18.4c2.9,12.6,8.3,22.1,24.3,18.7c-10.5-13.5-4-22,8.3-28.9
		c0.6,4,1.4,7.6,3.6,8.7c-0.3,3.5-2.8,5.1-7.7,4.6c7.8,4.5,15.6,7.9,22.2-10.7c4.8,8.1,10,15.6,18,17.1c-6.1-11.3-4.6-20,5.4-26
		l14.2-7c-0.1,3.5-0.8,6.7-2.9,9.4c4.1,1.8,8.2,3.2,12.5-5.9c-2.3-3.8-4.6-7.7-2.6-12.5c5.7-1.4,8.6-4.4,7.7-9.4
		c-2.8-5-3.4-10.8-2.2-17.1c4.4,2.1,8.8,3,13-1.7c-5.6-0.6-8.7-3.2-7.3-10c2.5-3.6-1.1-6-5.5-8.2c-3.2-2.4-2.8-6.7-1.3-11.5
		c1.5,5.2,4.9,7.8,14.6,1.8c-6.9,1.7-10.8,0.6-7.1-7.7c2.1-3.7-1.4-4.6-6.8-4.7c-7.5-2.3-0.8-12.7,3.8-21.8
		c3.5-7.4,0.8-13.9-6.8-19.7c6.2-0.2,10.7-2.6,11.9-9.2c-14.6,10.5-16.6,0.1-6.5-17.1c-11.2,1.5-13.1-4.8-7.5-17.5
		c6.7-9,11.5-17.6,2.4-23.1c-4.4-5.3-10.4-9.6-17.5-13.1c4.3,0,8-0.7,10.7-2.9c-20.6,2.6-22.3-22.3-26.7-27.7
		c-5-7.3-15.1-9.2-25.4-10.7c6.1-3.3,8.1-7.8,7-13.1c-6,10.1-15.5,12.5-29.5,5.1C195.3,58.6,186.2,59.3,183.1,67.6z"/>
</g>
<g id="Layer_12" class="st0">
	
		<image style="display:inline;overflow:visible;" width="3300" height="2550" xlink:href="../../../Downloads/90A37C4C-BD43-4A32-AA11-2B7834023FEB.png"  transform="matrix(0.24 0 0 0.24 -362.0638 38)">
	</image>
</g>
<g id="Layer_6" class="st0">
	
		<image style="overflow:visible;" width="425" height="225" xlink:href="597E13E8.png"  transform="matrix(0.2862 0 0 0.2862 154.5957 140.8774)">
	</image>
	
		<image style="display:inline;overflow:visible;" width="408" height="210" xlink:href="597E13E9.png"  transform="matrix(0.2967 0 0 0.2967 153.4681 138.3157)">
	</image>
</g>
<g id="Layer_10" class="st0">
</g>
<g id="Layer_11">
</g>
<g id="Layer_7" class="st0">
</g>
</svg>
