<?xml version="1.0" encoding="UTF-8"?><svg id="Layer_8" xmlns="http://www.w3.org/2000/svg" viewBox="0 0 400 1080"><defs><style>.cls-1{fill:#8115ff;stroke-width:0px;}</style></defs><path class="cls-1" d="m96.47,81.79l-4.94,8.51-2.74,12.77,3.09,8.85c1.95,14.33,17.53,23.83,22.81,16.51l8.7,17.68,9.26,10.54-.43,18.76-3.91,28.94c-5.78,11.92-12.25,21.33-27.06,30.98l-35.06,19.74-9.53,9.53-9.53,12.94-3.74,12.6-3.4,19.74.68,26.55.34,22.81,2.04,16.68,2.38,20.43.68,19.4-.26,14.96-3.49,15.68-7.15,14.98-4.43,16.34-3.4,9.53-5.79,21.45,2.38,40.85,1.38,23.13-4.79,31.34-1.38,21.11c-3.21,9,.31,19.43,3.94,29.96l5.11,6.47,2.91,2.7,4.43,3.06,5.94,2.23,3.26,2.87,3.06,1.7,4.77,1.36,5.6,3.77,7.68,5.43,2.72-2.38.68-3.06-1.02-6.47-1.36-4.09-4.09-6.81-3.74-9.87-1.36-11.23-.34-8.85.34-3.74,1.36-6.47,3.06,1.02,3.74,17.36,3.06,5.45c2.31,4,5.53,4.53,9.19,3.4l-.34-16.68c.99-11.83.16-21.68-3.06-28.94l-6.47-12.94-2.91-15.81-2.04-16.51c3.37-16.76,7.67-28.98,12.79-37.13l13.62-33.7c7.82-16.26,12.91-31.13,11.91-42.89l4.43-37.11,4.43-27.23-.35-2.26,2.71,8.07,1.7,10.55,1.7,12.94-1.36,23.83c-2.38,8.51-2,21.76-5.11,27.23l-6.13,22.81-5.77,18.7-10.4,55.17-1.87,28.43-1,27.72-2.68,16.34-2.43,25.53-1.4,22.47-1.68,32.36.7,26.19-2.38,22.81-8.17,19.74-3.77,9.21-8.68,17.02-7.15,28.43-3.4,32-.85,26.55-1.68,50.53.68,43.23-3.06,23.15c1.04,7.58-4.27,17.12-13.13,27.77l-21.6,27.38,1,9.23,7.85,3.02c8.04,3.18,15.65,5.01,22.13,3.4l31.32-2.55,18.81.34c3.45-.83,4.87-3.36,3.32-8.34l1.7-14.98-2.04-32.68,9.17-33.68,10.89-33.36,6.81-27.23,10.21-25.19,11.41-38.97,8.17-30.3-.17-20.26,1.36-14.98,7.83-15.66,11.23-20.77,4.43-17.02,5.45-16.34,2.04-12.6,5.79-21.11,5.47-25.89-3.4,25.87-3.06,53.45-.09,47.15-7.66,13.79-7.91,15.66-9.19,22.64-2.55,30.64,2.89,91.06c6.17,18.51,4.74,39.28-1.11,61.36l-2.64,26.47c1.37,4.7.32,9.84,5.68,11.06l15.1,5.38,40.32,2.03,31.4-2.37,36.75,2.88,14.88-3.03,3.97-8.71-4.55-5.36-11.47-6.98-23.49-11.87c-18.57-11.86-37.19-23.73-40.53-34.74l-1.02-10.21,4.43-17.02c7.74-47.64,16.45-90.07,27.23-131.74l14.43-18.7,9.06-19.77,4.09-27.23,14.3-67.4c6.92-46.51,13.93-85.58,16.34-118.81l-1.7-64.34-4.77-35.4c2.49-3.17-2.91-19.26-6.81-31.32l-6.47-25.19-3.4-26.21-2.04-13.62,1.02-16-.66-18.4-.7,13.64,12.96,16.32,11.21,11.91,19.06,18.74,11.83,8.06,15.74,1.81,11.26-2.06,8.85-9.53,4.4-17.51,2.38-14.47-8.98-44.77-2.6-18.89-2.55-17.02-3.23-23.32-1.02-27.4.34-8.85-3.04-4.79-.34-11.23,10.89-47.32,2.38-8.85,11.91-21.22v-4.47l-1.85-.55-4.47,3.62-11.72,16.49-8.17,7.15-3.06-1.36,1.36-6.81,3.06-14.07,3.74-13.85,3.06-12.26-3.74-3.4-3.4.34-3.4,5.79-8.85,23.38c-.81,7.92-1.16,16.34-7.15,18.83l-2.72-1.02v-7.83l4.43-46.3c-.23-2.18-1.71-5.05-3.6-8.15-2.67-.71-4.82.64-6.28,4.74l-3.4,19.4-3.06,33.7-2.72,3.06-4.11-1.85-.66-8.53c-4.1-14.59-4.99-27.43-4.77-39.66l-4.09-3.06-4.77,1.36-.34,4.24c-1.91,16.22-1.32,34.71,2.38,56.01l1.17,6.32.87,7.98-3.06,5.79-4.09,1.36-8.85-2.04-11.23-5.4-6.13,2-2.72,3.06.03,4.28,8.14,4.92,9.85,8.87,6.3,7.49,6.47,6.47c2.98,3.05,6.71,5.58,13.06,6.28l1.43,3.57,1.17,15.68,1.55,14.28-.62,13.96v13.62l-.09,17.89,2.04-7.32-5.11-9.19-8.51-17.36-9.53-16.34-10.89-16.34-15.32-12.26-14.3-4.09-10.89-2.04-28.23-7.17c-8.48-5.03-15.29-10.97-19.4-18.38l-2.04-21.45,6.02.68,15.09-1.45c9.21-2.74,17.31-7.01,24.51-12.51,6.74-5.23,11.69-12.61,16-20.77l5.11-20.09c-2.12-6.98-3.82-13.81-2.04-19.4l5.79-17.96c2.59-6.96,1.89-15.2,0-23.91l-9.87-26.21-15.32-16-20.43-11.57c-9.25-8.21-25.68-11.33-49.02-9.53-17.93-.93-33.72,1.29-45.62,9.19-20.35,11.63-29.28,27.29-33.02,48.68"/></svg>